<svg xmlns="http://www.w3.org/2000/svg" width="800" height="800">
<path style="fill:#ffffff; stroke:none;" d="M426 769C422.326 766.489 417.36 766.599 413 766C406.282 765.077 399.645 763.737 393 762.4C374.894 758.756 356.676 751.999 340 744.111C292.654 721.717 257.049 680.292 236.14 633C226.515 611.231 219 589.058 219 565L217 565C216.015 577.479 216.347 589.579 218.435 602C219.621 609.057 222.38 615.886 223 623C202.875 594.732 193.412 555.055 206.065 522C214.124 500.944 228.651 483.35 246 469.261C271.799 448.309 306.396 439.075 336 424.742C377.185 404.801 412.088 376.294 443.09 343C455.298 329.888 471.24 315.332 479 299C478.103 305.63 472.916 311.423 469.424 317C460.608 331.082 451.094 344.711 441.127 358C415.94 391.582 387.638 422.115 356 449.715C325.093 476.677 291.898 499.377 276.204 539C252.138 599.758 284.382 673.231 329 715.961C339.177 725.707 350.767 734.323 363 741.281C375.903 748.62 389.752 754.24 404 758.424C408.793 759.832 413.942 762.2 419 762.236C424.626 762.277 430.586 759.98 436 758.627C447.074 755.858 458.068 753.003 469 749.72C534.784 729.962 594.533 683.374 632.971 627C700.672 527.71 704.648 395.947 642.55 293C627.812 268.568 609.24 247.003 589 227.004C583.362 221.432 577.282 216.073 571 211.235C568.604 209.391 564.21 207.232 563.591 203.96C563.052 201.11 565.913 198.123 567.421 196C572.105 189.408 576.451 182.587 581.141 176C598.505 151.615 616.92 126.453 631 100C623.38 105.845 617.799 115.502 611.8 123C598.65 139.438 585.74 156.188 571.845 172C527.901 222.008 481.57 269.117 425 304.947C391.949 325.88 356.967 342.822 320 355.656C269.814 373.078 216.444 385.103 184.745 432C165.903 459.876 162 492.248 162 525C162 610.565 211.967 694.171 286 736.281C300.602 744.586 316.734 752.56 333 757C323.942 759.49 312.649 754.066 304 751.414C276.543 742.994 250.324 729.854 227 713.14C155.47 661.884 113.85 574.732 107.91 488C106.47 466.968 106.266 445.789 110.449 425C112.482 414.895 116.72 405.696 120 396C94.883 417.8 96 459.789 96 490C91.3642 481.846 88.5949 472.033 86.1512 463C68.8094 398.892 103.636 333.407 161 302.309C175.544 294.424 190.925 287.914 207 283.895C230.846 277.934 255.693 276.74 280 273.715C302.96 270.859 325.693 265.956 348 259.848C407.325 243.605 464.754 213.869 512 174.565C539.149 151.979 562.972 125.534 585 98C596.916 83.1061 608.203 67.7003 619.026 52C625.424 42.718 632.623 33.4577 637 23C630.467 26.1835 625.481 33.5961 620.714 39C613.609 47.056 605.594 54.4061 598 62C573.793 86.2066 546.851 107.993 519 127.859C511.481 133.222 503.684 138.211 496 143.333C491.934 146.044 487.681 149.745 483 151.298C472.617 154.742 459.565 146.752 449 146.209C442.503 145.875 436.602 149.33 430 148.91C407.905 147.503 386.241 142.26 364 142.004C277.461 141.008 189.168 179.874 131.17 244C104.448 273.544 82.5217 307.653 68.4252 345C31.3805 443.146 49.2642 555.363 111.895 639C132.341 666.303 157.989 689.634 186 708.975C225.803 736.457 272.219 755.549 320 763.565C354.545 769.36 391.042 769 426 769M480.667 297.667C480.722 297.722 480.778 298.778 480.333 298.333C480.278 298.278 480.222 297.222 480.667 297.667M218.333 560.667C218.278 560.722 218.222 561.778 218.667 561.333C218.722 561.278 218.778 560.222 218.333 560.667M224 623L223 624L224 623z"/>
</svg>