<?xml version="1.0" encoding="UTF-8"?>
<svg xmlns="http://www.w3.org/2000/svg" xmlns:xlink="http://www.w3.org/1999/xlink" width="100pt" height="100pt" viewBox="0 0 100 100" version="1.1">
<g id="surface1">
<path style=" stroke:none;fill-rule:nonzero;fill:rgb(100%,100%,100%);fill-opacity:1;" d="M 53.25 96.125 C 52.789062 95.8125 52.171875 95.824219 51.625 95.75 C 50.785156 95.632812 49.957031 95.46875 49.125 95.300781 C 46.863281 94.84375 44.585938 94 42.5 93.015625 C 36.582031 90.214844 32.132812 85.035156 29.515625 79.125 C 28.3125 76.402344 27.375 73.632812 27.375 70.625 L 27.125 70.625 C 27 72.183594 27.042969 73.699219 27.304688 75.25 C 27.453125 76.132812 27.796875 76.984375 27.875 77.875 C 25.359375 74.339844 24.175781 69.382812 25.757812 65.25 C 26.765625 62.617188 28.582031 60.417969 30.75 58.65625 C 33.976562 56.039062 38.300781 54.882812 42 53.09375 C 47.148438 50.601562 51.511719 47.035156 55.386719 42.875 C 56.914062 41.234375 58.90625 39.417969 59.875 37.375 C 59.761719 38.203125 59.113281 38.929688 58.679688 39.625 C 57.574219 41.386719 56.386719 43.089844 55.140625 44.75 C 51.992188 48.949219 48.453125 52.765625 44.5 56.214844 C 40.636719 59.585938 36.488281 62.421875 34.527344 67.375 C 31.515625 74.96875 35.546875 84.152344 41.125 89.496094 C 42.398438 90.714844 43.847656 91.789062 45.375 92.660156 C 46.988281 93.578125 48.71875 94.28125 50.5 94.804688 C 51.097656 94.980469 51.742188 95.273438 52.375 95.28125 C 53.078125 95.285156 53.824219 94.996094 54.5 94.828125 C 55.882812 94.480469 57.257812 94.125 58.625 93.714844 C 66.847656 91.246094 74.316406 85.421875 79.121094 78.375 C 87.585938 65.964844 88.082031 49.492188 80.320312 36.625 C 78.476562 33.570312 76.15625 30.875 73.625 28.375 C 72.921875 27.679688 72.160156 27.007812 71.375 26.40625 C 71.074219 26.175781 70.527344 25.902344 70.449219 25.496094 C 70.382812 25.140625 70.738281 24.765625 70.925781 24.5 C 71.511719 23.675781 72.054688 22.824219 72.644531 22 C 74.8125 18.953125 77.113281 15.804688 78.875 12.5 C 77.921875 13.230469 77.226562 14.4375 76.476562 15.375 C 74.832031 17.429688 73.21875 19.523438 71.480469 21.5 C 65.988281 27.75 60.195312 33.640625 53.125 38.117188 C 48.992188 40.734375 44.621094 42.851562 40 44.457031 C 33.726562 46.632812 27.054688 48.136719 23.09375 54 C 20.738281 57.484375 20.25 61.53125 20.25 65.625 C 20.25 76.320312 26.496094 86.769531 35.75 92.035156 C 37.574219 93.074219 39.589844 94.070312 41.625 94.625 C 40.492188 94.9375 39.082031 94.257812 38 93.925781 C 34.566406 92.875 31.289062 91.230469 28.375 89.140625 C 19.433594 82.734375 14.230469 71.839844 13.488281 61 C 13.308594 58.371094 13.285156 55.722656 13.804688 53.125 C 14.058594 51.863281 14.589844 50.710938 15 49.5 C 11.859375 52.226562 12 57.472656 12 61.25 C 11.421875 60.230469 11.074219 59.003906 10.769531 57.875 C 8.601562 49.863281 12.953125 41.675781 20.125 37.789062 C 21.941406 36.804688 23.867188 35.988281 25.875 35.488281 C 28.855469 34.742188 31.960938 34.59375 35 34.214844 C 37.871094 33.855469 40.710938 33.246094 43.5 32.480469 C 50.914062 30.449219 58.09375 26.734375 64 21.820312 C 67.394531 18.996094 70.371094 15.691406 73.125 12.25 C 74.613281 10.386719 76.023438 8.460938 77.378906 6.5 C 78.179688 5.339844 79.078125 4.183594 79.625 2.875 C 78.808594 3.273438 78.183594 4.199219 77.589844 4.875 C 76.699219 5.882812 75.699219 6.800781 74.75 7.75 C 71.722656 10.777344 68.355469 13.5 64.875 15.980469 C 63.933594 16.652344 62.960938 17.277344 62 17.917969 C 61.492188 18.253906 60.960938 18.71875 60.375 18.914062 C 59.078125 19.34375 57.445312 18.34375 56.125 18.277344 C 55.3125 18.234375 54.574219 18.667969 53.75 18.613281 C 50.988281 18.4375 48.28125 17.78125 45.5 17.75 C 34.683594 17.625 23.644531 22.484375 16.394531 30.5 C 13.054688 34.191406 10.316406 38.457031 8.554688 43.125 C 3.921875 55.394531 6.15625 69.421875 13.988281 79.875 C 16.542969 83.289062 19.75 86.203125 23.25 88.621094 C 28.226562 92.058594 34.027344 94.445312 40 95.445312 C 44.316406 96.171875 48.878906 96.125 53.25 96.125 M 60.082031 37.207031 C 60.089844 37.214844 60.097656 37.347656 60.042969 37.292969 C 60.035156 37.285156 60.027344 37.152344 60.082031 37.207031 M 27.292969 70.082031 C 27.285156 70.089844 27.277344 70.222656 27.332031 70.167969 C 27.339844 70.160156 27.347656 70.027344 27.292969 70.082031 M 28 77.875 L 27.875 78 Z M 28 77.875 "/>
</g>
</svg>
